# xmcd
#
# Track frame offsets:
#	150
#	10872
#	27498
#	39940
#	52184
#	65817
#	77478
#	89872
#	108249
#	121214
#	134276
#	147832
#	161930
#
# Disc length: 2348 seconds
#
# Revision: 0
# Processed by: cddbd v1.5.2PL0 Copyright (c) Steve Scherf et al.
# Submitted via: audiograbber 1.83.01
#
DISCID=b6092a0d
DTITLE=WERNER REISCHL - SING MIT MIR EIN HALLELUJA 3
DYEAR=1986
DGENRE=Sakral
TTITLE0=Zwei Juenger gingen (Bleibe bei uns)
TTITLE1=Herr, wir bitten: Komm und segne uns
TTITLE2=Eines Tages kam einer
TTITLE3=Halleluja aus Taizé
TTITLE4=Wer bist du Kirche
TTITLE5=Nie tiefer als in seine Hand
TTITLE6=Du bist das Licht der Welt
TTITLE7=Der Sonnengesang
TTITLE8=Zieh den Kreis nicht zu klein
TTITLE9=Maranatha
TTITLE10=Unter all die Sterne
TTITLE11=Ihr sollt ein Segen sein
TTITLE12=In dir allein wird meine Seele still
EXTD=
EXTT0=
EXTT1=
EXTT2=
EXTT3=
EXTT4=
EXTT5=
EXTT6=
EXTT7=
EXTT8=
EXTT9=
EXTT10=
EXTT11=
EXTT12=
PLAYORDER=
